# Blender v3.2.0 OBJ File: ''
# www.blender.org
mtllib doors.mtl
o Doors_Cube.003
v 6.954232 0.000000 7.599707
v 6.954232 1.000000 7.599707
v 6.954232 0.000000 7.500000
v 6.954232 1.000000 7.500000
v 7.045768 0.000000 7.599707
v 7.045768 1.000000 7.599707
v 7.045768 0.000000 7.500000
v 7.045768 1.000000 7.500000
v 7.045768 0.000000 8.400293
v 7.045768 1.000000 8.400293
v 7.045768 0.000000 8.500000
v 7.045768 1.000000 8.500000
v 6.954232 0.000000 8.400293
v 6.954232 1.000000 8.400293
v 6.954232 0.000000 8.500000
v 6.954232 1.000000 8.500000
v 7.045768 0.899856 8.405846
v 7.045768 0.899856 7.594155
v 7.045768 0.999563 8.405846
v 7.045768 0.999563 7.594155
v 6.954232 0.899856 8.405846
v 6.954232 0.899856 7.594155
v 6.954232 0.999563 8.405846
v 6.954232 0.999563 7.594155
v 3.599707 0.000000 -1.954232
v 3.599707 1.000000 -1.954232
v 3.500000 0.000000 -1.954232
v 3.500000 1.000000 -1.954232
v 3.599707 0.000000 -2.045769
v 3.599707 1.000000 -2.045769
v 3.500000 0.000000 -2.045769
v 3.500000 1.000000 -2.045769
v 4.400294 0.000000 -2.045769
v 4.400294 1.000000 -2.045769
v 4.500000 0.000000 -2.045769
v 4.500000 1.000000 -2.045769
v 4.400294 0.000000 -1.954232
v 4.400294 1.000000 -1.954232
v 4.500000 0.000000 -1.954232
v 4.500000 1.000000 -1.954232
v 4.405846 0.899856 -2.045769
v 3.594155 0.899856 -2.045769
v 4.405846 0.999563 -2.045769
v 3.594155 0.999563 -2.045769
v 4.405846 0.899856 -1.954232
v 3.594155 0.899856 -1.954232
v 4.405846 0.999563 -1.954232
v 3.594155 0.999563 -1.954232
v 11.599707 0.000000 4.045768
v 11.599707 1.000000 4.045768
v 11.500000 0.000000 4.045768
v 11.500000 1.000000 4.045768
v 11.599707 0.000000 3.954232
v 11.599707 1.000000 3.954232
v 11.500000 0.000000 3.954232
v 11.500000 1.000000 3.954232
v 12.400293 0.000000 3.954232
v 12.400293 1.000000 3.954232
v 12.500000 0.000000 3.954232
v 12.500000 1.000000 3.954232
v 12.400293 0.000000 4.045768
v 12.400293 1.000000 4.045768
v 12.500000 0.000000 4.045768
v 12.500000 1.000000 4.045768
v 12.405846 0.899856 3.954232
v 11.594155 0.899856 3.954232
v 12.405846 0.999563 3.954232
v 11.594155 0.999563 3.954232
v 12.405846 0.899856 4.045768
v 11.594155 0.899856 4.045768
v 12.405846 0.999563 4.045768
v 11.594155 0.999563 4.045768
v 8.599707 0.000000 3.045768
v 8.599707 1.000000 3.045768
v 8.500000 0.000000 3.045768
v 8.500000 1.000000 3.045768
v 8.599707 0.000000 2.954232
v 8.599707 1.000000 2.954232
v 8.500000 0.000000 2.954232
v 8.500000 1.000000 2.954232
v 9.400293 0.000000 2.954232
v 9.400293 1.000000 2.954232
v 9.500000 0.000000 2.954232
v 9.500000 1.000000 2.954232
v 9.400293 0.000000 3.045768
v 9.400293 1.000000 3.045768
v 9.500000 0.000000 3.045768
v 9.500000 1.000000 3.045768
v 9.405846 0.899856 2.954232
v 8.594155 0.899856 2.954232
v 9.405846 0.999563 2.954232
v 8.594155 0.999563 2.954232
v 9.405846 0.899856 3.045768
v 8.594155 0.899856 3.045768
v 9.405846 0.999563 3.045768
v 8.594155 0.999563 3.045768
v 3.954232 0.000000 2.599707
v 3.954232 1.000000 2.599707
v 3.954232 0.000000 2.500000
v 3.954232 1.000000 2.500000
v 4.045769 0.000000 2.599707
v 4.045769 1.000000 2.599707
v 4.045769 0.000000 2.500000
v 4.045769 1.000000 2.500000
v 4.045769 0.000000 3.400293
v 4.045769 1.000000 3.400293
v 4.045769 0.000000 3.500000
v 4.045769 1.000000 3.500000
v 3.954232 0.000000 3.400293
v 3.954232 1.000000 3.400293
v 3.954232 0.000000 3.500000
v 3.954232 1.000000 3.500000
v 4.045769 0.899856 3.405845
v 4.045769 0.899856 2.594155
v 4.045769 0.999563 3.405845
v 4.045769 0.999563 2.594155
v 3.954232 0.899856 3.405845
v 3.954232 0.899856 2.594155
v 3.954232 0.999563 3.405845
v 3.954232 0.999563 2.594155
vt 0.383804 0.000002
vt 0.383804 1.000000
vt 0.383804 1.000000
vt 0.383804 0.000002
vt 0.393975 1.000000
vt 0.393975 0.000002
vt 0.393975 1.000000
vt 0.393975 0.000002
vt 0.393975 0.000002
vt 0.393975 1.000000
vt 0.393975 1.000000
vt 0.393975 0.000002
vt 0.383804 1.000000
vt 0.383804 0.000002
vt 0.383804 1.000000
vt 0.383804 0.000002
vt 0.393975 0.899855
vt 0.393975 0.899855
vt 0.393975 0.999562
vt 0.393975 0.999562
vt 0.383804 0.999562
vt 0.383804 0.999562
vt 0.383804 0.899855
vt 0.383804 0.899855
vt 0.011079 0.000000
vt 0.011079 0.999998
vt 0.000000 0.999998
vt 0.000000 0.000000
vt 0.000000 0.999998
vt 0.000000 0.000000
vt 0.011079 0.999998
vt 0.011079 0.000000
vt 0.100033 0.000000
vt 0.100033 0.999998
vt 0.111111 0.999998
vt 0.111111 0.000000
vt 0.111111 0.999998
vt 0.111111 0.000000
vt 0.100033 0.999998
vt 0.100033 0.000000
vt 0.100650 0.899855
vt 0.010462 0.899855
vt 0.010462 0.999562
vt 0.100650 0.999562
vt 0.010462 0.999562
vt 0.100650 0.999562
vt 0.010462 0.899855
vt 0.100650 0.899855
vt 0.899968 0.000000
vt 0.899968 0.999998
vt 0.888889 0.999998
vt 0.888889 0.000000
vt 0.888889 0.999998
vt 0.888889 0.000000
vt 0.899968 0.999998
vt 0.899968 0.000000
vt 0.988921 0.000000
vt 0.988921 0.999998
vt 1.000000 0.999998
vt 1.000000 0.000000
vt 1.000000 0.999998
vt 1.000000 0.000000
vt 0.988921 0.999998
vt 0.988921 0.000000
vt 0.989538 0.899855
vt 0.899351 0.899855
vt 0.899351 0.999562
vt 0.989538 0.999562
vt 0.899351 0.999562
vt 0.989538 0.999562
vt 0.899351 0.899855
vt 0.989538 0.899855
vt 0.566634 0.000000
vt 0.566634 0.999998
vt 0.555556 0.999998
vt 0.555556 0.000000
vt 0.555556 0.999998
vt 0.555556 0.000000
vt 0.566634 0.999998
vt 0.566634 0.000000
vt 0.655588 0.000000
vt 0.655588 0.999998
vt 0.666667 0.999998
vt 0.666667 0.000000
vt 0.666667 0.999998
vt 0.666667 0.000000
vt 0.655588 0.999998
vt 0.655588 0.000000
vt 0.656205 0.899855
vt 0.566017 0.899855
vt 0.566017 0.999562
vt 0.656205 0.999562
vt 0.566017 0.999562
vt 0.656205 0.999562
vt 0.983117 0.998201
vt 0.022557 0.998201
vt 0.022557 0.003031
vt 0.983117 0.003031
vt 0.656205 0.899855
vt 0.566017 0.899855
vt 0.050470 0.000000
vt 0.050470 0.999998
vt 0.050470 0.999998
vt 0.050470 0.000000
vt 0.060641 0.999998
vt 0.060641 0.000000
vt 0.060641 0.999998
vt 0.060641 0.000000
vt 0.060641 0.000000
vt 0.060641 0.999998
vt 0.060641 0.999998
vt 0.060641 0.000000
vt 0.050470 0.999998
vt 0.050470 0.000000
vt 0.050470 0.999998
vt 0.050470 0.000000
vt 0.060641 0.899855
vt 0.060641 0.899855
vt 0.060641 0.999562
vt 0.060641 0.999562
vt 0.050470 0.999562
vt 0.050470 0.999562
vt 0.050470 0.899855
vt 0.050470 0.899855
vn -1.0000 0.0000 0.0000
vn 0.0000 0.0000 -1.0000
vn 1.0000 0.0000 0.0000
vn 0.0000 0.0000 1.0000
vn 0.0000 -1.0000 0.0000
vn 0.0000 1.0000 0.0000
usemtl Material.001
s off
f 1/1/1 2/2/1 4/3/1 3/4/1
f 3/4/2 4/3/2 8/5/2 7/6/2
f 7/6/3 8/5/3 6/7/3 5/8/3
f 5/8/4 6/7/4 2/2/4 1/1/4
f 3/4/5 7/6/5 5/8/5 1/1/5
f 8/5/6 4/3/6 2/2/6 6/7/6
f 9/9/3 10/10/3 12/11/3 11/12/3
f 11/12/4 12/11/4 16/13/4 15/14/4
f 15/14/1 16/13/1 14/15/1 13/16/1
f 13/16/2 14/15/2 10/10/2 9/9/2
f 11/12/5 15/14/5 13/16/5 9/9/5
f 16/13/6 12/11/6 10/10/6 14/15/6
f 17/17/3 18/18/3 20/19/3 19/20/3
f 19/20/6 20/19/6 24/21/6 23/22/6
f 23/22/1 24/21/1 22/23/1 21/24/1
f 21/24/5 22/23/5 18/18/5 17/17/5
f 19/20/4 23/22/4 21/24/4 17/17/4
f 24/21/2 20/19/2 18/18/2 22/23/2
f 25/25/4 26/26/4 28/27/4 27/28/4
f 27/28/1 28/27/1 32/29/1 31/30/1
f 31/30/2 32/29/2 30/31/2 29/32/2
f 29/32/3 30/31/3 26/26/3 25/25/3
f 27/28/5 31/30/5 29/32/5 25/25/5
f 32/29/6 28/27/6 26/26/6 30/31/6
f 33/33/2 34/34/2 36/35/2 35/36/2
f 35/36/3 36/35/3 40/37/3 39/38/3
f 39/38/4 40/37/4 38/39/4 37/40/4
f 37/40/1 38/39/1 34/34/1 33/33/1
f 35/36/5 39/38/5 37/40/5 33/33/5
f 40/37/6 36/35/6 34/34/6 38/39/6
f 41/41/2 42/42/2 44/43/2 43/44/2
f 43/44/6 44/43/6 48/45/6 47/46/6
f 47/46/4 48/45/4 46/47/4 45/48/4
f 45/48/5 46/47/5 42/42/5 41/41/5
f 43/44/3 47/46/3 45/48/3 41/41/3
f 48/45/1 44/43/1 42/42/1 46/47/1
f 49/49/4 50/50/4 52/51/4 51/52/4
f 51/52/1 52/51/1 56/53/1 55/54/1
f 55/54/2 56/53/2 54/55/2 53/56/2
f 53/56/3 54/55/3 50/50/3 49/49/3
f 51/52/5 55/54/5 53/56/5 49/49/5
f 56/53/6 52/51/6 50/50/6 54/55/6
f 57/57/2 58/58/2 60/59/2 59/60/2
f 59/60/3 60/59/3 64/61/3 63/62/3
f 63/62/4 64/61/4 62/63/4 61/64/4
f 61/64/1 62/63/1 58/58/1 57/57/1
f 59/60/5 63/62/5 61/64/5 57/57/5
f 64/61/6 60/59/6 58/58/6 62/63/6
f 65/65/2 66/66/2 68/67/2 67/68/2
f 67/68/6 68/67/6 72/69/6 71/70/6
f 71/70/4 72/69/4 70/71/4 69/72/4
f 69/72/5 70/71/5 66/66/5 65/65/5
f 67/68/3 71/70/3 69/72/3 65/65/3
f 72/69/1 68/67/1 66/66/1 70/71/1
f 73/73/4 74/74/4 76/75/4 75/76/4
f 75/76/1 76/75/1 80/77/1 79/78/1
f 79/78/2 80/77/2 78/79/2 77/80/2
f 77/80/3 78/79/3 74/74/3 73/73/3
f 75/76/5 79/78/5 77/80/5 73/73/5
f 80/77/6 76/75/6 74/74/6 78/79/6
f 81/81/2 82/82/2 84/83/2 83/84/2
f 83/84/3 84/83/3 88/85/3 87/86/3
f 87/86/4 88/85/4 86/87/4 85/88/4
f 85/88/1 86/87/1 82/82/1 81/81/1
f 83/84/5 87/86/5 85/88/5 81/81/5
f 88/85/6 84/83/6 82/82/6 86/87/6
f 89/89/2 90/90/2 92/91/2 91/92/2
f 91/92/6 92/91/6 96/93/6 95/94/6
f 95/95/4 96/96/4 94/97/4 93/98/4
f 93/99/5 94/100/5 90/90/5 89/89/5
f 91/92/3 95/94/3 93/99/3 89/89/3
f 96/93/1 92/91/1 90/90/1 94/100/1
f 97/101/1 98/102/1 100/103/1 99/104/1
f 99/104/2 100/103/2 104/105/2 103/106/2
f 103/106/3 104/105/3 102/107/3 101/108/3
f 101/108/4 102/107/4 98/102/4 97/101/4
f 99/104/5 103/106/5 101/108/5 97/101/5
f 104/105/6 100/103/6 98/102/6 102/107/6
f 105/109/3 106/110/3 108/111/3 107/112/3
f 107/112/4 108/111/4 112/113/4 111/114/4
f 111/114/1 112/113/1 110/115/1 109/116/1
f 109/116/2 110/115/2 106/110/2 105/109/2
f 107/112/5 111/114/5 109/116/5 105/109/5
f 112/113/6 108/111/6 106/110/6 110/115/6
f 113/117/3 114/118/3 116/119/3 115/120/3
f 115/120/6 116/119/6 120/121/6 119/122/6
f 119/122/1 120/121/1 118/123/1 117/124/1
f 117/124/5 118/123/5 114/118/5 113/117/5
f 115/120/4 119/122/4 117/124/4 113/117/4
f 120/121/2 116/119/2 114/118/2 118/123/2
