# Blender v3.2.0 OBJ File: 'doors.blend'
# www.blender.org
mtllib doors.mtl
o Doors_Cube.003
v 6.954232 0.000000 7.599707
v 6.954232 1.000000 7.599707
v 6.954232 0.000000 7.500000
v 6.954232 1.000000 7.500000
v 7.045768 0.000000 7.599707
v 7.045768 1.000000 7.599707
v 7.045768 0.000000 7.500000
v 7.045768 1.000000 7.500000
v 7.045768 0.000000 8.400293
v 7.045768 1.000000 8.400293
v 7.045768 0.000000 8.500000
v 7.045768 1.000000 8.500000
v 6.954232 0.000000 8.400293
v 6.954232 1.000000 8.400293
v 6.954232 0.000000 8.500000
v 6.954232 1.000000 8.500000
v 7.045768 0.899856 8.405846
v 7.045768 0.899856 7.594155
v 7.045768 0.999563 8.405846
v 7.045768 0.999563 7.594155
v 6.954232 0.899856 8.405846
v 6.954232 0.899856 7.594155
v 6.954232 0.999563 8.405846
v 6.954232 0.999563 7.594155
v 3.599707 0.000000 -1.954232
v 3.599707 1.000000 -1.954232
v 3.500000 0.000000 -1.954232
v 3.500000 1.000000 -1.954232
v 3.599707 0.000000 -2.045769
v 3.599707 1.000000 -2.045769
v 3.500000 0.000000 -2.045769
v 3.500000 1.000000 -2.045769
v 4.400294 0.000000 -2.045769
v 4.400294 1.000000 -2.045769
v 4.500000 0.000000 -2.045769
v 4.500000 1.000000 -2.045769
v 4.400294 0.000000 -1.954232
v 4.400294 1.000000 -1.954232
v 4.500000 0.000000 -1.954232
v 4.500000 1.000000 -1.954232
v 4.405846 0.899856 -2.045769
v 3.594155 0.899856 -2.045769
v 4.405846 0.999563 -2.045769
v 3.594155 0.999563 -2.045769
v 4.405846 0.899856 -1.954232
v 3.594155 0.899856 -1.954232
v 4.405846 0.999563 -1.954232
v 3.594155 0.999563 -1.954232
v 11.599707 0.000000 4.045768
v 11.599707 1.000000 4.045768
v 11.500000 0.000000 4.045768
v 11.500000 1.000000 4.045768
v 11.599707 0.000000 3.954232
v 11.599707 1.000000 3.954232
v 11.500000 0.000000 3.954232
v 11.500000 1.000000 3.954232
v 12.400293 0.000000 3.954232
v 12.400293 1.000000 3.954232
v 12.500000 0.000000 3.954232
v 12.500000 1.000000 3.954232
v 12.400293 0.000000 4.045768
v 12.400293 1.000000 4.045768
v 12.500000 0.000000 4.045768
v 12.500000 1.000000 4.045768
v 12.405846 0.899856 3.954232
v 11.594155 0.899856 3.954232
v 12.405846 0.999563 3.954232
v 11.594155 0.999563 3.954232
v 12.405846 0.899856 4.045768
v 11.594155 0.899856 4.045768
v 12.405846 0.999563 4.045768
v 11.594155 0.999563 4.045768
v 8.599707 0.000000 3.045768
v 8.599707 1.000000 3.045768
v 8.500000 0.000000 3.045768
v 8.500000 1.000000 3.045768
v 8.599707 0.000000 2.954232
v 8.599707 1.000000 2.954232
v 8.500000 0.000000 2.954232
v 8.500000 1.000000 2.954232
v 9.400293 0.000000 2.954232
v 9.400293 1.000000 2.954232
v 9.500000 0.000000 2.954232
v 9.500000 1.000000 2.954232
v 9.400293 0.000000 3.045768
v 9.400293 1.000000 3.045768
v 9.500000 0.000000 3.045768
v 9.500000 1.000000 3.045768
v 9.405846 0.899856 2.954232
v 8.594155 0.899856 2.954232
v 9.405846 0.999563 2.954232
v 8.594155 0.999563 2.954232
v 9.405846 0.899856 3.045768
v 8.594155 0.899856 3.045768
v 9.405846 0.999563 3.045768
v 8.594155 0.999563 3.045768
v 3.954232 0.000000 2.599707
v 3.954232 1.000000 2.599707
v 3.954232 0.000000 2.500000
v 3.954232 1.000000 2.500000
v 4.045769 0.000000 2.599707
v 4.045769 1.000000 2.599707
v 4.045769 0.000000 2.500000
v 4.045769 1.000000 2.500000
v 4.045769 0.000000 3.400293
v 4.045769 1.000000 3.400293
v 4.045769 0.000000 3.500000
v 4.045769 1.000000 3.500000
v 3.954232 0.000000 3.400293
v 3.954232 1.000000 3.400293
v 3.954232 0.000000 3.500000
v 3.954232 1.000000 3.500000
v 4.045769 0.899856 3.405845
v 4.045769 0.899856 2.594155
v 4.045769 0.999563 3.405845
v 4.045769 0.999563 2.594155
v 3.954232 0.899856 3.405845
v 3.954232 0.899856 2.594155
v 3.954232 0.999563 3.405845
v 3.954232 0.999563 2.594155
vt 0.000000 0.000000
vt 0.000000 0.000000
vt 0.000000 0.000000
vt 0.000000 0.000000
vt 0.000000 0.000000
vt 0.000000 0.000000
vt 0.000000 0.000000
vt 0.000000 0.000000
vt 0.000000 0.000000
vt 0.000000 0.000000
vt 0.000000 0.000000
vt 0.000000 0.000000
vt 0.000000 0.000000
vt 0.000000 0.000000
vt 0.000000 0.000000
vt 0.000000 0.000000
vt 0.000000 0.000000
vt 1.000000 0.000000
vt 1.000000 1.000000
vt 0.000000 1.000000
vt 0.000000 0.000000
vt 1.000000 0.000000
vt 1.000000 1.000000
vt 0.000000 1.000000
vt 0.000000 0.000000
vt 1.000000 0.000000
vt 1.000000 1.000000
vt 0.000000 1.000000
vt 0.000000 0.000000
vt 1.000000 0.000000
vt 1.000000 1.000000
vt 0.000000 1.000000
vt 1.000000 0.000000
vt 1.000000 1.000000
vt 0.000000 0.000000
vt 0.000000 1.000000
vt 0.000000 0.000000
vt 0.000000 0.000000
vt 0.000000 0.000000
vt 0.000000 0.000000
vt 0.000000 0.000000
vt 0.000000 0.000000
vt 0.000000 0.000000
vt 0.000000 0.000000
vt 0.000000 0.000000
vt 0.000000 0.000000
vt 0.000000 0.000000
vt 0.000000 0.000000
vt 0.000000 0.000000
vt 0.000000 0.000000
vt 0.000000 0.000000
vt 0.000000 0.000000
vt 0.000000 0.000000
vt 1.000000 0.000000
vt 1.000000 1.000000
vt 0.000000 1.000000
vt 0.000000 0.000000
vt 1.000000 0.000000
vt 1.000000 1.000000
vt 0.000000 1.000000
vt 0.000000 0.000000
vt 1.000000 0.000000
vt 1.000000 1.000000
vt 0.000000 1.000000
vt 0.000000 0.000000
vt 1.000000 0.000000
vt 1.000000 1.000000
vt 0.000000 1.000000
vt 1.000000 0.000000
vt 1.000000 1.000000
vt 0.000000 0.000000
vt 0.000000 1.000000
vt 0.000000 0.000000
vt 0.000000 0.000000
vt 0.000000 0.000000
vt 0.000000 0.000000
vt 0.000000 0.000000
vt 0.000000 0.000000
vt 0.000000 0.000000
vt 0.000000 0.000000
vt 0.000000 0.000000
vt 0.000000 0.000000
vt 0.000000 0.000000
vt 0.000000 0.000000
vt 0.000000 0.000000
vt 0.000000 0.000000
vt 0.000000 0.000000
vt 0.000000 0.000000
vt 0.000000 0.000000
vt 1.000000 0.000000
vt 1.000000 1.000000
vt 0.000000 1.000000
vt 0.000000 0.000000
vt 1.000000 0.000000
vt 1.000000 1.000000
vt 0.000000 1.000000
vt 0.000000 0.000000
vt 1.000000 0.000000
vt 1.000000 1.000000
vt 0.000000 1.000000
vt 0.000000 0.000000
vt 1.000000 0.000000
vt 1.000000 1.000000
vt 0.000000 1.000000
vt 1.000000 0.000000
vt 1.000000 1.000000
vt 0.000000 0.000000
vt 0.000000 1.000000
vt 0.000000 0.000000
vt 0.000000 0.000000
vt 0.000000 0.000000
vt 0.000000 0.000000
vt 0.000000 0.000000
vt 0.000000 0.000000
vt 0.000000 0.000000
vt 0.000000 0.000000
vt 0.000000 0.000000
vt 0.000000 0.000000
vt 0.000000 0.000000
vt 0.000000 0.000000
vt 0.000000 0.000000
vt 0.000000 0.000000
vt 0.000000 0.000000
vt 0.000000 0.000000
vt 0.000000 0.000000
vt 1.000000 0.000000
vt 1.000000 1.000000
vt 0.000000 1.000000
vt 0.000000 0.000000
vt 1.000000 0.000000
vt 1.000000 1.000000
vt 0.000000 1.000000
vt 0.000000 0.000000
vt 1.000000 0.000000
vt 1.000000 1.000000
vt 0.000000 1.000000
vt 0.000000 0.000000
vt 1.000000 0.000000
vt 1.000000 1.000000
vt 0.000000 1.000000
vt 1.000000 0.000000
vt 1.000000 1.000000
vt 0.000000 0.000000
vt 0.000000 1.000000
vt 0.000000 0.000000
vt 0.000000 0.000000
vt 0.000000 0.000000
vt 0.000000 0.000000
vt 0.000000 0.000000
vt 0.000000 0.000000
vt 0.000000 0.000000
vt 0.000000 0.000000
vt 0.000000 0.000000
vt 0.000000 0.000000
vt 0.000000 0.000000
vt 0.000000 0.000000
vt 0.000000 0.000000
vt 0.000000 0.000000
vt 0.000000 0.000000
vt 0.000000 0.000000
vt 0.000000 0.000000
vt 1.000000 0.000000
vt 1.000000 1.000000
vt 0.000000 1.000000
vt 0.000000 0.000000
vt 1.000000 0.000000
vt 1.000000 1.000000
vt 0.000000 1.000000
vt 0.000000 0.000000
vt 1.000000 0.000000
vt 1.000000 1.000000
vt 0.000000 1.000000
vt 0.000000 0.000000
vt 1.000000 0.000000
vt 1.000000 1.000000
vt 0.000000 1.000000
vt 1.000000 0.000000
vt 1.000000 1.000000
vt 0.000000 0.000000
vt 0.000000 1.000000
vn -1.0000 0.0000 0.0000
vn 0.0000 0.0000 -1.0000
vn 1.0000 0.0000 0.0000
vn 0.0000 0.0000 1.0000
vn 0.0000 -1.0000 0.0000
vn 0.0000 1.0000 0.0000
usemtl Material.001
s off
f 1/1/1 2/2/1 4/3/1 3/4/1
f 3/4/2 4/3/2 8/5/2 7/6/2
f 7/6/3 8/5/3 6/7/3 5/8/3
f 5/8/4 6/7/4 2/2/4 1/1/4
f 3/4/5 7/6/5 5/8/5 1/1/5
f 8/5/6 4/3/6 2/2/6 6/7/6
f 9/9/3 10/10/3 12/11/3 11/12/3
f 11/12/4 12/11/4 16/13/4 15/14/4
f 15/14/1 16/13/1 14/15/1 13/16/1
f 13/16/2 14/15/2 10/10/2 9/9/2
f 11/12/5 15/14/5 13/16/5 9/9/5
f 16/13/6 12/11/6 10/10/6 14/15/6
f 17/17/3 18/18/3 20/19/3 19/20/3
f 19/21/6 20/22/6 24/23/6 23/24/6
f 23/25/1 24/26/1 22/27/1 21/28/1
f 21/29/5 22/30/5 18/31/5 17/32/5
f 19/21/4 23/33/4 21/34/4 17/32/4
f 24/35/2 20/22/2 18/31/2 22/36/2
f 25/37/4 26/38/4 28/39/4 27/40/4
f 27/40/1 28/39/1 32/41/1 31/42/1
f 31/42/2 32/41/2 30/43/2 29/44/2
f 29/44/3 30/43/3 26/38/3 25/37/3
f 27/40/5 31/42/5 29/44/5 25/37/5
f 32/41/6 28/39/6 26/38/6 30/43/6
f 33/45/2 34/46/2 36/47/2 35/48/2
f 35/48/3 36/47/3 40/49/3 39/50/3
f 39/50/4 40/49/4 38/51/4 37/52/4
f 37/52/1 38/51/1 34/46/1 33/45/1
f 35/48/5 39/50/5 37/52/5 33/45/5
f 40/49/6 36/47/6 34/46/6 38/51/6
f 41/53/2 42/54/2 44/55/2 43/56/2
f 43/57/6 44/58/6 48/59/6 47/60/6
f 47/61/4 48/62/4 46/63/4 45/64/4
f 45/65/5 46/66/5 42/67/5 41/68/5
f 43/57/3 47/69/3 45/70/3 41/68/3
f 48/71/1 44/58/1 42/67/1 46/72/1
f 49/73/4 50/74/4 52/75/4 51/76/4
f 51/76/1 52/75/1 56/77/1 55/78/1
f 55/78/2 56/77/2 54/79/2 53/80/2
f 53/80/3 54/79/3 50/74/3 49/73/3
f 51/76/5 55/78/5 53/80/5 49/73/5
f 56/77/6 52/75/6 50/74/6 54/79/6
f 57/81/2 58/82/2 60/83/2 59/84/2
f 59/84/3 60/83/3 64/85/3 63/86/3
f 63/86/4 64/85/4 62/87/4 61/88/4
f 61/88/1 62/87/1 58/82/1 57/81/1
f 59/84/5 63/86/5 61/88/5 57/81/5
f 64/85/6 60/83/6 58/82/6 62/87/6
f 65/89/2 66/90/2 68/91/2 67/92/2
f 67/93/6 68/94/6 72/95/6 71/96/6
f 71/97/4 72/98/4 70/99/4 69/100/4
f 69/101/5 70/102/5 66/103/5 65/104/5
f 67/93/3 71/105/3 69/106/3 65/104/3
f 72/107/1 68/94/1 66/103/1 70/108/1
f 73/109/4 74/110/4 76/111/4 75/112/4
f 75/112/1 76/111/1 80/113/1 79/114/1
f 79/114/2 80/113/2 78/115/2 77/116/2
f 77/116/3 78/115/3 74/110/3 73/109/3
f 75/112/5 79/114/5 77/116/5 73/109/5
f 80/113/6 76/111/6 74/110/6 78/115/6
f 81/117/2 82/118/2 84/119/2 83/120/2
f 83/120/3 84/119/3 88/121/3 87/122/3
f 87/122/4 88/121/4 86/123/4 85/124/4
f 85/124/1 86/123/1 82/118/1 81/117/1
f 83/120/5 87/122/5 85/124/5 81/117/5
f 88/121/6 84/119/6 82/118/6 86/123/6
f 89/125/2 90/126/2 92/127/2 91/128/2
f 91/129/6 92/130/6 96/131/6 95/132/6
f 95/133/4 96/134/4 94/135/4 93/136/4
f 93/137/5 94/138/5 90/139/5 89/140/5
f 91/129/3 95/141/3 93/142/3 89/140/3
f 96/143/1 92/130/1 90/139/1 94/144/1
f 97/145/1 98/146/1 100/147/1 99/148/1
f 99/148/2 100/147/2 104/149/2 103/150/2
f 103/150/3 104/149/3 102/151/3 101/152/3
f 101/152/4 102/151/4 98/146/4 97/145/4
f 99/148/5 103/150/5 101/152/5 97/145/5
f 104/149/6 100/147/6 98/146/6 102/151/6
f 105/153/3 106/154/3 108/155/3 107/156/3
f 107/156/4 108/155/4 112/157/4 111/158/4
f 111/158/1 112/157/1 110/159/1 109/160/1
f 109/160/2 110/159/2 106/154/2 105/153/2
f 107/156/5 111/158/5 109/160/5 105/153/5
f 112/157/6 108/155/6 106/154/6 110/159/6
f 113/161/3 114/162/3 116/163/3 115/164/3
f 115/165/6 116/166/6 120/167/6 119/168/6
f 119/169/1 120/170/1 118/171/1 117/172/1
f 117/173/5 118/174/5 114/175/5 113/176/5
f 115/165/4 119/177/4 117/178/4 113/176/4
f 120/179/2 116/166/2 114/175/2 118/180/2
